<mxfile host="app.diagrams.net" agent="Mozilla/5.0 (Windows NT 10.0; Win64; x64) AppleWebKit/537.36 (KHTML, like Gecko) Chrome/134.0.0.0 Safari/537.36 Edg/134.0.0.0" version="26.1.0" pages="2">
  <diagram name="Página-1" id="XfBthMR8T0P7ij5uPgO7">
    <mxGraphModel dx="1869" dy="565" grid="1" gridSize="10" guides="1" tooltips="1" connect="1" arrows="1" fold="1" page="1" pageScale="1" pageWidth="827" pageHeight="1169" math="0" shadow="0">
      <root>
        <mxCell id="0" />
        <mxCell id="1" parent="0" />
        <mxCell id="pX4I8aLS1TVnOgx89g2z-5" value="Actor" style="shape=umlActor;verticalLabelPosition=bottom;verticalAlign=top;html=1;outlineConnect=0;" vertex="1" parent="1">
          <mxGeometry x="-230" y="140" width="40" height="60" as="geometry" />
        </mxCell>
        <mxCell id="pX4I8aLS1TVnOgx89g2z-18" value="" style="endArrow=classic;html=1;rounded=0;" edge="1" parent="1" target="pX4I8aLS1TVnOgx89g2z-21">
          <mxGeometry relative="1" as="geometry">
            <mxPoint x="-170" y="170" as="sourcePoint" />
            <mxPoint x="-74.7535923880614" y="173.62142984170066" as="targetPoint" />
            <Array as="points" />
          </mxGeometry>
        </mxCell>
        <mxCell id="pX4I8aLS1TVnOgx89g2z-21" value="pagina&lt;div&gt;de login&lt;/div&gt;" style="ellipse;whiteSpace=wrap;html=1;" vertex="1" parent="1">
          <mxGeometry x="-100" y="130" width="120" height="80" as="geometry" />
        </mxCell>
        <mxCell id="pX4I8aLS1TVnOgx89g2z-39" value="" style="endArrow=classic;html=1;rounded=0;" edge="1" parent="1">
          <mxGeometry relative="1" as="geometry">
            <mxPoint x="10" y="170" as="sourcePoint" />
            <mxPoint x="170" y="170" as="targetPoint" />
          </mxGeometry>
        </mxCell>
        <mxCell id="pX4I8aLS1TVnOgx89g2z-42" value="Target" style="edgeLabel;resizable=0;html=1;;align=right;verticalAlign=bottom;" connectable="0" vertex="1" parent="pX4I8aLS1TVnOgx89g2z-39">
          <mxGeometry x="1" relative="1" as="geometry" />
        </mxCell>
        <mxCell id="pX4I8aLS1TVnOgx89g2z-43" value="&amp;nbsp;reservas disponíveis" style="ellipse;whiteSpace=wrap;html=1;" vertex="1" parent="1">
          <mxGeometry x="110" y="130" width="120" height="80" as="geometry" />
        </mxCell>
        <mxCell id="pX4I8aLS1TVnOgx89g2z-48" value="" style="endArrow=none;html=1;rounded=0;" edge="1" parent="1">
          <mxGeometry width="50" height="50" relative="1" as="geometry">
            <mxPoint x="-20" y="280" as="sourcePoint" />
            <mxPoint x="170" y="200" as="targetPoint" />
          </mxGeometry>
        </mxCell>
        <mxCell id="pX4I8aLS1TVnOgx89g2z-49" value="horário disponível para essa reserva" style="ellipse;whiteSpace=wrap;html=1;" vertex="1" parent="1">
          <mxGeometry x="-110" y="260" width="120" height="80" as="geometry" />
        </mxCell>
        <mxCell id="pX4I8aLS1TVnOgx89g2z-50" value="" style="endArrow=classic;html=1;rounded=0;" edge="1" parent="1" source="pX4I8aLS1TVnOgx89g2z-67">
          <mxGeometry relative="1" as="geometry">
            <mxPoint x="140" y="290" as="sourcePoint" />
            <mxPoint x="250" y="290" as="targetPoint" />
          </mxGeometry>
        </mxCell>
        <mxCell id="pX4I8aLS1TVnOgx89g2z-53" value="pagamento&amp;nbsp;" style="ellipse;whiteSpace=wrap;html=1;" vertex="1" parent="1">
          <mxGeometry x="220" y="250" width="120" height="80" as="geometry" />
        </mxCell>
        <mxCell id="pX4I8aLS1TVnOgx89g2z-56" value="" style="endArrow=classic;html=1;rounded=0;exitX=1;exitY=0.625;exitDx=0;exitDy=0;exitPerimeter=0;" edge="1" parent="1" source="pX4I8aLS1TVnOgx89g2z-53">
          <mxGeometry relative="1" as="geometry">
            <mxPoint x="350" y="290" as="sourcePoint" />
            <mxPoint x="490" y="290" as="targetPoint" />
          </mxGeometry>
        </mxCell>
        <mxCell id="pX4I8aLS1TVnOgx89g2z-59" value="pagamento finalizado" style="ellipse;whiteSpace=wrap;html=1;" vertex="1" parent="1">
          <mxGeometry x="460" y="250" width="120" height="80" as="geometry" />
        </mxCell>
        <mxCell id="pX4I8aLS1TVnOgx89g2z-62" value="" style="endArrow=none;html=1;rounded=0;" edge="1" parent="1" source="pX4I8aLS1TVnOgx89g2z-63">
          <mxGeometry width="50" height="50" relative="1" as="geometry">
            <mxPoint x="520" y="260" as="sourcePoint" />
            <mxPoint x="520" y="180" as="targetPoint" />
          </mxGeometry>
        </mxCell>
        <mxCell id="pX4I8aLS1TVnOgx89g2z-64" value="" style="endArrow=none;html=1;rounded=0;" edge="1" parent="1" target="pX4I8aLS1TVnOgx89g2z-63">
          <mxGeometry width="50" height="50" relative="1" as="geometry">
            <mxPoint x="520" y="260" as="sourcePoint" />
            <mxPoint x="520" y="180" as="targetPoint" />
          </mxGeometry>
        </mxCell>
        <mxCell id="pX4I8aLS1TVnOgx89g2z-63" value="reservas concluidas" style="ellipse;whiteSpace=wrap;html=1;" vertex="1" parent="1">
          <mxGeometry x="460" y="120" width="120" height="80" as="geometry" />
        </mxCell>
        <mxCell id="pX4I8aLS1TVnOgx89g2z-71" value="" style="endArrow=classic;html=1;rounded=0;" edge="1" parent="1" target="pX4I8aLS1TVnOgx89g2z-67">
          <mxGeometry relative="1" as="geometry">
            <mxPoint x="140" y="290" as="sourcePoint" />
            <mxPoint x="250" y="290" as="targetPoint" />
          </mxGeometry>
        </mxCell>
        <mxCell id="pX4I8aLS1TVnOgx89g2z-67" value="selecionar reserva" style="ellipse;whiteSpace=wrap;html=1;" vertex="1" parent="1">
          <mxGeometry x="70" y="260" width="120" height="80" as="geometry" />
        </mxCell>
        <mxCell id="pX4I8aLS1TVnOgx89g2z-77" value="cancelar reservas&amp;nbsp;" style="ellipse;whiteSpace=wrap;html=1;direction=west;" vertex="1" parent="1">
          <mxGeometry x="440" y="20" width="120" height="80" as="geometry" />
        </mxCell>
        <mxCell id="pX4I8aLS1TVnOgx89g2z-79" value="" style="endArrow=none;html=1;rounded=0;entryX=0;entryY=0.5;entryDx=0;entryDy=0;entryPerimeter=0;" edge="1" parent="1" target="pX4I8aLS1TVnOgx89g2z-67">
          <mxGeometry width="50" height="50" relative="1" as="geometry">
            <mxPoint y="310" as="sourcePoint" />
            <mxPoint x="60" y="310" as="targetPoint" />
          </mxGeometry>
        </mxCell>
        <mxCell id="pX4I8aLS1TVnOgx89g2z-80" value="" style="endArrow=none;html=1;rounded=0;entryX=0.5;entryY=0;entryDx=0;entryDy=0;entryPerimeter=0;" edge="1" parent="1" target="pX4I8aLS1TVnOgx89g2z-77">
          <mxGeometry width="50" height="50" relative="1" as="geometry">
            <mxPoint x="500" y="120" as="sourcePoint" />
            <mxPoint x="540" y="70" as="targetPoint" />
          </mxGeometry>
        </mxCell>
      </root>
    </mxGraphModel>
  </diagram>
  <diagram id="UNKB7cb540oDV_ySyxqs" name="Página-2">
    <mxGraphModel dx="992" dy="538" grid="1" gridSize="10" guides="1" tooltips="1" connect="1" arrows="1" fold="1" page="1" pageScale="1" pageWidth="827" pageHeight="1169" math="0" shadow="0">
      <root>
        <mxCell id="0" />
        <mxCell id="1" parent="0" />
        <mxCell id="pGV0N5z8ZnyoMnEIcEVb-1" value="" style="whiteSpace=wrap;html=1;aspect=fixed;" vertex="1" parent="1">
          <mxGeometry x="200" y="95" width="440" height="440" as="geometry" />
        </mxCell>
        <mxCell id="pGV0N5z8ZnyoMnEIcEVb-2" value="Actor" style="shape=umlActor;verticalLabelPosition=bottom;verticalAlign=top;html=1;outlineConnect=0;" vertex="1" parent="1">
          <mxGeometry x="110" y="110" width="60" height="90" as="geometry" />
        </mxCell>
        <mxCell id="pGV0N5z8ZnyoMnEIcEVb-3" value="Actor" style="shape=umlActor;verticalLabelPosition=bottom;verticalAlign=top;html=1;outlineConnect=0;" vertex="1" parent="1">
          <mxGeometry x="110" y="380" width="60" height="110" as="geometry" />
        </mxCell>
        <mxCell id="pGV0N5z8ZnyoMnEIcEVb-4" value="Actor" style="shape=umlActor;verticalLabelPosition=bottom;verticalAlign=top;html=1;outlineConnect=0;" vertex="1" parent="1">
          <mxGeometry x="690" y="220" width="90" height="100" as="geometry" />
        </mxCell>
        <mxCell id="pGV0N5z8ZnyoMnEIcEVb-6" value="Manuntenção" style="ellipse;whiteSpace=wrap;html=1;" vertex="1" parent="1">
          <mxGeometry x="332" y="370" width="96" height="70" as="geometry" />
        </mxCell>
        <mxCell id="pGV0N5z8ZnyoMnEIcEVb-7" value="Reparo" style="ellipse;whiteSpace=wrap;html=1;" vertex="1" parent="1">
          <mxGeometry x="326" y="450" width="88" height="60" as="geometry" />
        </mxCell>
        <mxCell id="pGV0N5z8ZnyoMnEIcEVb-10" value="" style="endArrow=none;html=1;rounded=0;entryX=0.075;entryY=0.5;entryDx=0;entryDy=0;entryPerimeter=0;" edge="1" parent="1" target="pGV0N5z8ZnyoMnEIcEVb-7">
          <mxGeometry width="50" height="50" relative="1" as="geometry">
            <mxPoint x="170" y="460" as="sourcePoint" />
            <mxPoint x="230" y="400" as="targetPoint" />
          </mxGeometry>
        </mxCell>
        <mxCell id="pGV0N5z8ZnyoMnEIcEVb-12" value="" style="endArrow=none;html=1;rounded=0;entryX=0.079;entryY=0.444;entryDx=0;entryDy=0;entryPerimeter=0;" edge="1" parent="1" target="pGV0N5z8ZnyoMnEIcEVb-6">
          <mxGeometry width="50" height="50" relative="1" as="geometry">
            <mxPoint x="160" y="440" as="sourcePoint" />
            <mxPoint x="210" y="390" as="targetPoint" />
          </mxGeometry>
        </mxCell>
        <mxCell id="pGV0N5z8ZnyoMnEIcEVb-13" value="" style="endArrow=none;html=1;rounded=0;" edge="1" parent="1" target="pGV0N5z8ZnyoMnEIcEVb-4">
          <mxGeometry width="50" height="50" relative="1" as="geometry">
            <mxPoint x="430" y="490" as="sourcePoint" />
            <mxPoint x="670" y="280" as="targetPoint" />
          </mxGeometry>
        </mxCell>
        <mxCell id="pGV0N5z8ZnyoMnEIcEVb-14" value="" style="endArrow=none;html=1;rounded=0;exitX=0.917;exitY=0.429;exitDx=0;exitDy=0;exitPerimeter=0;" edge="1" parent="1" source="pGV0N5z8ZnyoMnEIcEVb-6">
          <mxGeometry width="50" height="50" relative="1" as="geometry">
            <mxPoint x="490" y="360" as="sourcePoint" />
            <mxPoint x="700" y="280" as="targetPoint" />
          </mxGeometry>
        </mxCell>
        <mxCell id="pGV0N5z8ZnyoMnEIcEVb-15" value="Checar Saldo" style="ellipse;whiteSpace=wrap;html=1;" vertex="1" parent="1">
          <mxGeometry x="353" y="95" width="103" height="65" as="geometry" />
        </mxCell>
        <mxCell id="pGV0N5z8ZnyoMnEIcEVb-16" value="Depositar" style="ellipse;whiteSpace=wrap;html=1;" vertex="1" parent="1">
          <mxGeometry x="350" y="170" width="100.5" height="50" as="geometry" />
        </mxCell>
        <mxCell id="pGV0N5z8ZnyoMnEIcEVb-17" value="Sacar" style="ellipse;whiteSpace=wrap;html=1;" vertex="1" parent="1">
          <mxGeometry x="347" y="225" width="92" height="50" as="geometry" />
        </mxCell>
        <mxCell id="pGV0N5z8ZnyoMnEIcEVb-19" value="" style="endArrow=none;html=1;rounded=0;" edge="1" parent="1" source="pGV0N5z8ZnyoMnEIcEVb-18">
          <mxGeometry width="50" height="50" relative="1" as="geometry">
            <mxPoint x="420" y="310" as="sourcePoint" />
            <mxPoint x="699" y="260" as="targetPoint" />
          </mxGeometry>
        </mxCell>
        <mxCell id="pGV0N5z8ZnyoMnEIcEVb-20" value="" style="endArrow=none;html=1;rounded=0;" edge="1" parent="1">
          <mxGeometry width="50" height="50" relative="1" as="geometry">
            <mxPoint x="440" y="250" as="sourcePoint" />
            <mxPoint x="690" y="250" as="targetPoint" />
          </mxGeometry>
        </mxCell>
        <mxCell id="pGV0N5z8ZnyoMnEIcEVb-21" value="" style="endArrow=none;html=1;rounded=0;" edge="1" parent="1">
          <mxGeometry width="50" height="50" relative="1" as="geometry">
            <mxPoint x="450" y="200" as="sourcePoint" />
            <mxPoint x="700" y="250" as="targetPoint" />
          </mxGeometry>
        </mxCell>
        <mxCell id="pGV0N5z8ZnyoMnEIcEVb-22" value="" style="endArrow=none;html=1;rounded=0;" edge="1" parent="1">
          <mxGeometry width="50" height="50" relative="1" as="geometry">
            <mxPoint x="450" y="140" as="sourcePoint" />
            <mxPoint x="700" y="240" as="targetPoint" />
          </mxGeometry>
        </mxCell>
        <mxCell id="pGV0N5z8ZnyoMnEIcEVb-23" value="" style="endArrow=none;html=1;rounded=0;entryX=0.068;entryY=0.385;entryDx=0;entryDy=0;entryPerimeter=0;" edge="1" parent="1" target="pGV0N5z8ZnyoMnEIcEVb-15">
          <mxGeometry width="50" height="50" relative="1" as="geometry">
            <mxPoint x="180" y="120" as="sourcePoint" />
            <mxPoint x="340" y="110" as="targetPoint" />
          </mxGeometry>
        </mxCell>
        <mxCell id="pGV0N5z8ZnyoMnEIcEVb-24" value="" style="endArrow=none;html=1;rounded=0;" edge="1" parent="1">
          <mxGeometry width="50" height="50" relative="1" as="geometry">
            <mxPoint x="160" y="160" as="sourcePoint" />
            <mxPoint x="360" y="200" as="targetPoint" />
          </mxGeometry>
        </mxCell>
        <mxCell id="pGV0N5z8ZnyoMnEIcEVb-25" value="" style="endArrow=none;html=1;rounded=0;" edge="1" parent="1">
          <mxGeometry width="50" height="50" relative="1" as="geometry">
            <mxPoint x="180" y="180" as="sourcePoint" />
            <mxPoint x="350" y="250" as="targetPoint" />
          </mxGeometry>
        </mxCell>
        <mxCell id="pGV0N5z8ZnyoMnEIcEVb-26" value="" style="endArrow=none;html=1;rounded=0;entryX=0.061;entryY=0.4;entryDx=0;entryDy=0;entryPerimeter=0;" edge="1" parent="1" target="pGV0N5z8ZnyoMnEIcEVb-18">
          <mxGeometry width="50" height="50" relative="1" as="geometry">
            <mxPoint x="180" y="190" as="sourcePoint" />
            <mxPoint x="340" y="320" as="targetPoint" />
          </mxGeometry>
        </mxCell>
        <mxCell id="pGV0N5z8ZnyoMnEIcEVb-27" value="" style="endArrow=none;html=1;rounded=0;" edge="1" parent="1" target="pGV0N5z8ZnyoMnEIcEVb-18">
          <mxGeometry width="50" height="50" relative="1" as="geometry">
            <mxPoint x="420" y="310" as="sourcePoint" />
            <mxPoint x="699" y="260" as="targetPoint" />
          </mxGeometry>
        </mxCell>
        <mxCell id="pGV0N5z8ZnyoMnEIcEVb-18" value="Transferir" style="ellipse;whiteSpace=wrap;html=1;" vertex="1" parent="1">
          <mxGeometry x="366" y="290" width="90" height="50" as="geometry" />
        </mxCell>
      </root>
    </mxGraphModel>
  </diagram>
</mxfile>
